<?xml version="1.0" encoding="UTF-8" standalone="no"?>
<!DOCTYPE svg PUBLIC "-//W3C//DTD SVG 1.1//EN" "http://www.w3.org/Graphics/SVG/1.1/DTD/svg11.dtd">
<svg width="100%" height="100%" viewBox="0 0 693 124" version="1.1" xmlns="http://www.w3.org/2000/svg" xmlns:xlink="http://www.w3.org/1999/xlink" xml:space="preserve" xmlns:serif="http://www.serif.com/" style="fill-rule:evenodd;clip-rule:evenodd;stroke-linejoin:round;stroke-miterlimit:2;">
    <g transform="matrix(1,0,0,1,-613.511,-478)">
        <g id="LOGO" transform="matrix(22.7151,0,-1.05471e-15,22.3585,-3936.9,-11471.6)">
            <g transform="matrix(7.92424,0,0,7.92424,200,540)">
                <path d="M0.041,-0L0.139,-0.006L0.139,-0.511L0.141,-0.511L0.273,-0.011L0.386,-0.017L0.386,-0.7L0.288,-0.7L0.288,-0.281L0.286,-0.281L0.179,-0.7L0.041,-0.7L0.041,-0Z" style="fill:rgb(229,9,20);fill-rule:nonzero;"/>
            </g>
            <g transform="matrix(7.92424,0,0,7.92424,203.384,540)">
                <path d="M0.041,-0.017L0.341,-0.028L0.341,-0.1L0.151,-0.1L0.151,-0.315L0.302,-0.315L0.302,-0.415L0.151,-0.415L0.151,-0.6L0.341,-0.6L0.341,-0.7L0.041,-0.7L0.041,-0.017Z" style="fill:rgb(229,9,20);fill-rule:nonzero;"/>
            </g>
            <g transform="matrix(7.92424,0,0,7.92424,206.26,540)">
                <path d="M0.127,-0.028L0.237,-0.034L0.237,-0.6L0.352,-0.6L0.352,-0.7L0.012,-0.7L0.012,-0.6L0.127,-0.6L0.127,-0.028Z" style="fill:rgb(229,9,20);fill-rule:nonzero;"/>
            </g>
            <g transform="matrix(7.92424,0,0,7.92424,209.145,540)">
                <path d="M0.041,-0.04L0.151,-0.045L0.151,-0.305L0.293,-0.305L0.293,-0.405L0.151,-0.405L0.151,-0.6L0.332,-0.6L0.332,-0.7L0.041,-0.7L0.041,-0.04Z" style="fill:rgb(229,9,20);fill-rule:nonzero;"/>
            </g>
            <g transform="matrix(7.92424,0,0,7.92424,211.871,540)">
                <path d="M0.041,-0.051L0.332,-0.057L0.332,-0.1L0.151,-0.1L0.151,-0.7L0.041,-0.7L0.041,-0.051Z" style="fill:rgb(229,9,20);fill-rule:nonzero;"/>
            </g>
            <g transform="matrix(7.92424,0,0,7.92424,214.596,540)">
                <rect x="0.041" y="-0.7" width="0.11" height="0.638" style="fill:rgb(229,9,20);fill-rule:nonzero;"/>
            </g>
            <g transform="matrix(7.92424,0,0,7.92424,216.118,540)">
                <path d="M0.011,-0.062L0.109,-0.057L0.197,-0.244L0.199,-0.244L0.279,-0.057L0.389,-0.051L0.268,-0.358L0.389,-0.7L0.285,-0.7L0.209,-0.474L0.207,-0.474L0.133,-0.7L0.017,-0.7L0.138,-0.358L0.011,-0.062Z" style="fill:rgb(229,9,20);fill-rule:nonzero;"/>
            </g>
            <g transform="matrix(7.92424,0,0,7.92424,220.603,540)">
                <path d="M0.041,-0.045L0.332,-0.034L0.332,-0.1L0.151,-0.1L0.151,-0.7L0.041,-0.7L0.041,-0.045Z" style="fill:rgb(229,9,20);fill-rule:nonzero;"/>
            </g>
            <g transform="matrix(7.92424,0,0,7.92424,223.329,540)">
                <path d="M0.041,-0.034L0.151,-0.028L0.151,-0.7L0.041,-0.7L0.041,-0.034Z" style="fill:rgb(229,9,20);fill-rule:nonzero;"/>
            </g>
            <g transform="matrix(7.92424,0,0,7.92424,224.85,540)">
                <path d="M0.041,-0.028L0.151,-0.023L0.151,-0.223L0.195,-0.312L0.288,-0.023L0.403,-0.017L0.27,-0.443L0.401,-0.7L0.291,-0.7L0.151,-0.405L0.151,-0.7L0.041,-0.7L0.041,-0.028Z" style="fill:rgb(229,9,20);fill-rule:nonzero;"/>
            </g>
            <g transform="matrix(7.92424,0,0,7.92424,228.131,540)">
                <path d="M0.041,-0.017L0.341,-0.006L0.341,-0.1L0.151,-0.1L0.151,-0.315L0.302,-0.315L0.302,-0.415L0.151,-0.415L0.151,-0.6L0.341,-0.6L0.341,-0.7L0.041,-0.7L0.041,-0.017Z" style="fill:rgb(229,9,20);fill-rule:nonzero;"/>
            </g>
        </g>
    </g>
</svg>
